<svg width="60" height="60" viewBox="0 0 60 60" fill="none" xmlns="http://www.w3.org/2000/svg">
<path d="M30 0C46.5685 0 60 13.4315 60 30C60 46.5685 46.5685 60 30 60C13.4315 60 0 46.5685 0 30C0 13.4315 13.4315 0 30 0ZM30 6.24995C17.7276 6.24995 7.62932 15.5583 6.38005 27.5001H17.7501C18.9082 21.7944 23.9526 17.4999 30 17.4999C36.0474 17.4999 41.0918 21.7944 42.25 27.5001H53.62C52.3707 15.5583 42.2724 6.24995 30 6.24995ZM6.38005 32.5C7.62932 44.4417 17.7276 53.7501 30 53.7501C42.2724 53.7501 52.3707 44.4417 53.62 32.5L42.25 32.5001C41.0918 38.2056 36.0474 42.5001 30 42.5001C23.9526 42.5001 18.9082 38.2056 17.7501 32.5001L6.38005 32.5ZM30 22.5C25.8578 22.5 22.5 25.8579 22.5 30C22.5 34.1422 25.8578 37.5 30 37.5C34.1421 37.5 37.5 34.1422 37.5 30C37.5 25.8579 34.1421 22.5 30 22.5ZM30 26.25C32.0711 26.25 33.75 27.9289 33.75 30C33.75 32.0711 32.0711 33.75 30 33.75C27.9289 33.75 26.25 32.0711 26.25 30C26.25 27.9289 27.9289 26.25 30 26.25Z" fill="#FF0000" fill-opacity="0.25"/>
</svg>
