<svg width="68" height="28" viewBox="0 0 68 28" fill="none" xmlns="http://www.w3.org/2000/svg">
<path d="M34 0C52.7777 0 68 6.26802 68 14C68 21.732 52.7777 28 34 28C15.2223 28 0 21.732 0 14C0 6.26802 15.2223 0 34 0ZM34 2.91664C20.0913 2.91664 8.64656 7.26055 7.23073 12.8334L20.1167 12.8334C21.4293 10.1707 27.1463 8.16664 34 8.16664C40.8537 8.16664 46.5707 10.1707 47.8833 12.8334L60.7693 12.8334C59.3534 7.26055 47.9087 2.91664 34 2.91664ZM7.23073 15.1666C8.64656 20.7395 20.0913 25.0834 34 25.0834C47.9087 25.0834 59.3534 20.7395 60.7693 15.1666L47.8833 15.1667C46.5707 17.8293 40.8537 19.8334 34 19.8334C27.1463 19.8334 21.4293 17.8293 20.1167 15.1667L7.23073 15.1666ZM34 10.5C29.3055 10.5 25.5 12.067 25.5 14C25.5 15.933 29.3055 17.5 34 17.5C38.6943 17.5 42.5 15.933 42.5 14C42.5 12.067 38.6943 10.5 34 10.5ZM34 12.25C36.3473 12.25 38.25 13.0335 38.25 14C38.25 14.9665 36.3473 15.75 34 15.75C31.6527 15.75 29.75 14.9665 29.75 14C29.75 13.0335 31.6527 12.25 34 12.25Z" fill="white" fill-opacity="0.25"/>
</svg>
